<svg width="80" height="80" viewBox="0 0 80 80" fill="none" xmlns="http://www.w3.org/2000/svg"><path d="M14 67.9c12.9 0 23.6.6 35.6-3.2A58.9 58.9 0 0070 52.6c1-1 1-4.3 1-4.3.8 3.6-.2 9.9-.2 9.9a72 72 0 01-21.2 10.6c-7.9 2.3-29 5.1-35.2 4.8l-.5-5.7z" fill="#F68559"/><path d="M14 69.7c12.8 0 26.2.6 38.4-4 5.4-2.2 10.5-5 15.1-8.6 3.4-2.5 5.3-4.4 5.4-8.8l-3.5.5c.4 2.2.8 6.6-.2 8.7l-1.7 1a68 68 0 01-21.4 9.3c-10 2.4-21.3 4.5-31.7 4l1.8 1.8-.5-5.7c-.2-2.3-3.8-2.3-3.6 0l.5 5.7a1.8 1.8 0 001.8 1.8c5.7.2 11.5-.7 17-1.5 6.2-.8 12.5-1.6 18.5-3.4 7-2 13.7-5 19.8-9.1 1.7-1.2 2.7-1.9 3-4 .6-3.1.6-6.4.2-9.5-.4-2.1-3.5-1.5-3.6.4 0 4.3-4.5 6.6-7.8 8.7a53.2 53.2 0 01-14.2 6.6C36.4 66.6 25 66 13.9 66c-2.3 0-2.3 3.6 0 3.6z" fill="#F68559"/><path d="M56.3 51.8c-1 0-1.5-1.5-1.3-2.6.3-1 1-1.9 1.9-2.4 1.9-1.4 4.6-2 6 .1 1 1.7.4 4.2-.7 5.8a4.4 4.4 0 01-3.7 2 3.8 3.8 0 01-3.2-3c-.4-1.7.2-3.8 1.5-4.4" fill="#B8DDF0"/><path d="M56.7 50c.3 0 0 0 0-.3.2-.4.4-.8.8-1.1a5 5 0 011.9-1.2c1.8-.5 2.4 1 2 2.7-.3 1.2-1.6 3.3-3.1 2.7-1.5-.5-2-3.2-.6-4 2-1.3.1-4.3-1.8-3.1-3.6 2.3-3.2 8.2.6 10.2 4.2 2.3 8.3-2.3 8.6-6.3.1-2-.6-4.3-2.5-5.3-1.8-1-3.9-.6-5.6.3-1.8.9-3.5 2.5-3.8 4.5-.3 1.8.6 4.1 2.5 4.4 2.3.3 3.3-3.1 1-3.5z" fill="#B8DDF0"/><path d="M41.4 56.8c-.5-1.8-1.1-2.4 0-3.7a5 5 0 014-1.8 2.8 2.8 0 012.5 1.3c1 1.6.1 4.4-1.2 5.6-.9.8-5 0-5.3-1.4" fill="#FFD15A"/><path d="M43.2 56.3l-.7-1.8.5-.5c.2-.3.6-.5 1-.7 1.2-.4 2.7-.3 2.6 1.3-.1.7-.4 1.3-.8 1.9 0 0-.3.3 0 .2h-.5a5 5 0 01-1.4-.3l-.6-.2c-.4 0-.4-.5-.1.1-.8-2.1-4.3-1.2-3.5 1 .8 2.2 3.9 3 6 3 3-.3 4.6-3.8 4.4-6.5-.2-3.6-4-5-7.1-4a6.3 6.3 0 00-3.7 3c-.7 1.6 0 3 .4 4.5.7 2.1 4.1 1.2 3.4-1z" fill="#FFD15A"/><path d="M29 57.3c-.6.6-.6 2.7 0 3.4a3.5 3.5 0 003.1.9c1.2-.5 2.2-3.1 1.9-4.6-.4-1.4-2.7-2.1-3.6-1" fill="#FFB69B"/><path d="M27.8 56c-1.5 1.7-1.4 4.9.3 6.3 1.9 1.5 4.8 1.7 6.3-.4 1.2-1.6 2-4.5.8-6.4-1.2-1.8-4.4-2.6-6-.8-1.6 1.7 1 4.3 2.5 2.6.3-.4 0 0-.1 0h.3l.3.2c.3.5-.3 1.7-.5 2.2-.1 0-.4.3-.2.3-.4 0-.7-.1-1-.3-.2-.4-.2-.8-.2-1.1 1.6-1.7-1-4.2-2.5-2.6z" fill="#FFB69B"/><path d="M15.6 68.5c2.3-4 5-8 8-11.5 1.5-1.7-1-4.3-2.6-2.5a79.2 79.2 0 00-8.5 12.2c-1.2 2 2 3.8 3 1.8z" fill="#1E2882"/><path d="M14 69.7c6 0 11.9-.3 17.8-.8 2.3-.1 2.3-3.7 0-3.5-6 .4-12 .6-17.8.7-2.3 0-2.3 3.6 0 3.6zM45.8 66.4c5.9-1.4 11.7-3.2 17-6.1C67 58 72.3 55 72.8 50c.6-4.6-1.5-8.1-5.7-10.2-2.1-1-4.5-1.5-7-1.3-1 0-3.6-.3-4.5.8a1.8 1.8 0 001.3 3c1.9 0 3.7-.3 5.6-.3l-1.3-3 .6-.4c-2.2.3-1.3 3.7 1 3.4.4 0 .7-.2 1-.5a1.8 1.8 0 00-1.3-3c-1.9 0-3.7.3-5.6.2l1.3 3c-.4.5 3 .3 3.6.3 1.9.1 3.7.8 5.2 1.9a5.3 5.3 0 012.3 5c-.3 2.7-2.1 4.2-4.3 5.8A57 57 0 0144.7 63c-2.2.5-1.2 4 1 3.4z" fill="#1E2882"/><path d="M59 19.4c1.2 4 2 7.3 2 11.5v.2c-4 6.1-9.8 11.3-16.1 15-10.1 6-21.1 10.1-32.6 12.4 0 0-2.8-3.6-3.4-5.3" fill="#F68559"/><path d="M57.3 20a45 45 0 011.9 8.5c.1.9 0 1.8-.3 2.6-.6 1.2-1.8 2.4-2.6 3.4-3.6 4-7.7 7.4-12.3 10.1-10 5.9-20.8 10-32.1 12.2l2 .8a30 30 0 01-3.5-5.2c-1-2.1-4-.3-3 1.8a30 30 0 003.4 5.2 1.9 1.9 0 002 .8 97.7 97.7 0 0036.4-14.7c4.6-3.2 8.7-7 12-11.6 1.8-2.4 1.8-3.6 1.4-6.6-.4-2.8-1-5.6-1.9-8.3-.6-2.2-4-1.3-3.4 1z" fill="#F68559"/><path d="M8.9 53c16.6-5.2 23.8-7.2 37.5-15.8A37.4 37.4 0 0058 24.9c1.4-2.2 1.7-5.2.2-7.3-1.9-2.5-5.5-2.6-8.6-2.2-2.7.5-5.3 1.2-7.9 2.3v-.6c.3-2 .2-3.9-.3-5.8A6.7 6.7 0 0038 6.8a7.5 7.5 0 00-5.5.2c-4.8 1.7-8.2 6-10.6 10.5-3.4 6.1-5.5 12.9-7.6 19.6-1.5 4.9-3.2 8.5-4.7 13.3L9 53z" fill="#FFD15A"/><path d="M9.3 54.6c15-4.6 32.2-9.2 43.8-20.5 3.8-3.8 9.8-10.3 7.3-16.2-3.1-7.3-13.8-4.1-19.2-2l2.2 1.3c-.3-2.8.4-5.4-1-8.2a7.7 7.7 0 00-5.3-4.3c-6.1-1.2-11.7 4-14.9 8.6a77.4 77.4 0 00-9 20.8c-2 6.1-4.4 12.1-6 18.3-.6 2.3 2.8 3.2 3.4 1 1-4.1 2.6-8 4-12 2-5.8 3.6-11.7 6-17.3 2.1-5.2 5-11 9.8-14.1 3.2-2.1 7.9-2.9 9.3 1.8.6 2.1 0 4.3.3 6.4a1.8 1.8 0 002.2 1.2A26 26 0 0152.4 17c5 .2 5.7 4 3.5 7.8a38 38 0 01-13.5 12.7c-10.7 6.4-22.2 10-34 13.7-2.2.7-1.3 4.1 1 3.4z" fill="#FFD15A"/><path d="M21.7 31.8c1.2-4 3.9-8.8 6-12.4.6-1.2 3.5-3.8 5.8-3.5 2.1.4 1.4 4.2 1.4 5.3-.2 2.2-.6 4.4-1.3 6.5 4.3-1.2 16-6.6 17.1-4.2 1.2 2.5-6.4 8.3-8.3 9.2L32.5 38c-4.7 2-9.5 3.9-14.3 5.5l3.5-11.7z" fill="#F68559"/><path d="M23.4 32.2c.9-2.6 2-5 3.3-7.4 1-1.9 1.9-4.2 3.5-5.6.6-.6 2.1-2 3-1 .3.4 0 1.6 0 2-.2 2.4-.6 4.8-1.3 7a1.8 1.8 0 002.2 2.2c4-1.2 8-3 12-4.2 1-.3 2-.5 3-.5.9 0-.1 0 0-.4-.2.4-.4.8-.7 1a33.8 33.8 0 01-5 4.7c-7.6 5.4-17 8.8-25.7 11.7l2.2 2.2 3.6-11.7c.6-2.2-2.9-3.1-3.5-1-1.2 4-2.3 7.9-3.6 11.8a1.8 1.8 0 002.2 2.2c6.8-2.2 13.4-5 19.8-8.3 4.3-2.3 8.6-4.6 12-8.3 2.2-2.5 3.7-7.4-1.3-7.5-5.4-.1-10.9 3.4-16 4.9l2.2 2.2c1-3.4 4-14.7-2.8-14-2.8.3-5.3 2.5-6.7 4.8-2.4 3.9-4.4 8-5.8 12.3-.7 2.2 2.7 3.1 3.4 1z" fill="#F68559"/></svg>