<svg fill="none" height="56" viewBox="0 0 56 56" width="56" xmlns="http://www.w3.org/2000/svg"><path d="m43.6 23.4c.3 2-.6 5.1-1.7 6.9-.8 1.4-2.1 2.4-3.7 3-1.6.4-3.2.8-4.9.8 2.7.6 5.5 1.2 7.3 3.3a9.4 9.4 0 0 1 2.5 5.3c0 1 .2 2 .5 2.8.2-3.2-.1-4.5 1.7-7s5.4-4.4 8.6-4.5c-1.3-.1-4.1-.3-5.2-.9-1.8-1-2-1.4-3.1-3.1a16 16 0 0 1 -2-6.4" fill="#ffd15a"/><path d="m42.6 23.4c.2 2.4-.4 4.9-1.9 6.9-1.7 2.3-4.7 2.7-7.4 2.9-1 0-1.3 1.6-.2 1.8 3.3.7 6.2 1.6 8 4.7 1.1 1.9 1.1 4 1.6 6 .2 1.1 1.8.8 1.8-.2.2-2.5.2-4.8 1.9-6.8 2-2.2 4.6-3.5 7.5-3.8a1 1 0 0 0 0-1.9c-2.2 0-4.8-.1-6.4-1.8-1.8-2-2.7-5-3-7.6-.1-1.2-2-1.2-1.9 0 .4 3 1.4 6.6 3.6 8.9 2 2.1 5 2.3 7.7 2.4v-1.9c-3.4.3-6.5 1.8-8.8 4.3-2.2 2.5-2.3 5.1-2.5 8.2l1.9-.3c-.6-2.8-.8-5.3-2.6-7.7-2-2.7-5.1-3.6-8.3-4.3l-.3 1.9c3.1-.3 6.5-.8 8.6-3.3 1.9-2.4 2.8-5.4 2.6-8.4-.1-1.2-2-1.2-1.9 0zm-22.7-15.6c0 1.3 0 2.7-.7 3.8-.6.9-1.3 2.3-2.2 2.8-2.3 1.4-4.8 2-7.4 1.8 2.5.2 5 1 7.2 2.3 1.7 1 1.6 1.7 2.4 3.5s.9 2.9.9 5c0 .6.3-2.9 1.1-4.8.4-.8 1.2-2.3 2-2.9 1.3-1 4.9-2.4 7.4-2.7-2.1 0-5.6-.7-7.2-2-1-.9-2-1.8-2.6-3a9.2 9.2 0 0 1 -1-5.4" fill="#ffd15a"/><path d="m19 7.8c0 5.3-4.5 7.7-9.4 7.5-1.2-.1-1.2 1.8 0 1.8 2.4.2 6.2 1 7.7 3 1.6 2 1.6 4.6 1.9 7 0 1 1.6 1.4 1.8.2.5-2.1.6-4.3 1.8-6.2 1.7-2.4 5.4-3.2 8-3.6 1.1-.1.8-1.8-.2-1.8-5.6-.3-10.2-3.4-9.8-9.5 0-1.2-1.8-1.2-2 0-.4 7.2 5.2 11 11.8 11.4l-.3-1.9c-2.7.4-6.5 1.3-8.4 3.5-2 2.2-2.1 5-2.7 7.7l1.8.2c-.3-2.8-.4-6-2.4-8.4-2-2.2-6.1-3.2-9-3.4v1.7c6 .3 11.3-3 11.2-9.3 0-1.2-2-1.2-1.9 0z" fill="#ffd15a"/><path d="m22.4 37c-1.7-.8-3.3-1.8-4.8-2.9 3.3-5.6 7-11.3 10.4-17 .5-.7.7-3.2 1.4-3.8l3-2.3c1.2-.9 5-3.4 6.8-4.8-.5 3.5-.4 4.2-1 8.1l-1 3.5c-.4.8-12.5 18.7-13.8 20.3z" fill="#b8ddf0"/><path d="m23 36a35 35 0 0 1 -4.7-3l.4 1.8 6-9.7c1.6-2.8 4-5.6 5-8.7.4-1.5.4-2.2 1.7-3.1l2.6-1.9c2-1.4 4.1-2.8 6-4.3l-2-.9c-.5 3.6-.4 7.7-2 11.1-.9 2-2.4 3.8-3.6 5.6-3.2 4.7-6.5 10-9.9 14.3h1.8l-1-1c-1.2-1.2-3 .5-1.8 1.7l1 1.1a1.3 1.3 0 0 0 1.8 0c3.8-4.8 7-10.1 10.4-15.2 1.2-1.7 2.6-3.5 3.5-5.4 1.8-3.7 1.7-8.2 2.2-12.2.1-1.2-1.4-1.5-2.1-.9-2.1 1.7-4.4 3-6.5 4.6-1.8 1.1-3.5 2.1-4.2 4.1-.5 1.5-.8 2.7-1.7 4.2l-2.9 4.8-6.4 10.5a1.3 1.3 0 0 0 .4 1.7c1.6 1 3.1 2 4.8 2.9 1.4.7 2.7-1.4 1.3-2.2z" fill="#b8ddf0"/><path d="m12.4 31.9c4 3 8.3 5.7 12.6 8.3a5 5 0 0 0 2.2 1c1.1 0 2.4-.7 3.4 0a1.8 1.8 0 0 1 .7 1.9 2.5 2.5 0 0 1 -1.5 1.6c-1.3.5-2.8 0-4.2-.5-2.5-.9-4.8-2-7.1-3.4-2.8-1.8-5.2-4-7.7-6.1-.5-.4-.9-.8-1.2-1.4a4 4 0 0 1 -.3-2.7c.1-.7.4-1.5 1.1-1.7a1.5 1.5 0 0 1 1.7 1c.2.6.3 1.3.2 2" fill="#f68559"/><path d="m11.8 33c3.3 2.4 6.7 4.6 10.2 6.8 1.3.8 2.6 2 4.1 2.4.6.2 1.2.2 1.8.2 1 0 3.5.2 1 .9-3.5.8-8.5-2.6-11.2-4.6a59.7 59.7 0 0 1 -7.1-6.2c-.2-.4-.2-.8-.1-1.2.6-.3.8-.1.6.6 0 1.6 2.5 1.6 2.5 0 0-2-.9-4.9-3.5-4.2-2 .5-2.4 3.3-2 5 .6 2.7 3.9 4.7 6 6.4 2.8 2.3 5.9 4.1 9.3 5.6 2.3 1 5.3 2.3 7.7.7 1.5-1 2.1-3.3.8-4.8-.8-.8-1.7-1-2.8-1-1.3 0-2.2.1-3.4-.4l-2.4-1.5a159 159 0 0 1 -10.3-6.9c-1.3-1-2.5 1.2-1.2 2.2z" fill="#f68559"/><path d="m14 40.2c-1.5 2.8-3.5 5.5-4.9 8.1-.2.3-.3.7-.2 1 0 .2.1.4.3.5.8 1 3.8 2.9 4.2 2.8a45 45 0 0 0 4.3-6.8l1-2.1.2-.3c0-.2-.5 0-.6-.1-1.3-.7-2.4-1.9-3.7-2.5" fill="#ffd15a"/><path d="m13 39.6-3.7 5.9c-.6 1-1.8 2.5-1.7 3.8.2 2 3.3 3.8 4.9 4.4 1.8.6 2.5-1 3.4-2.4 1.5-2.3 2.6-5 4.1-7.2a1.3 1.3 0 0 0 -.4-1.7c-1.6-.7-2.8-1.8-4.3-2.7-1.4-.8-2.7 1.4-1.3 2.2 1.5.8 2.8 2 4.3 2.6l-.4-1.7c-1 1.4-1.6 3.2-2.5 4.7l-1.5 2.3c-.2.3-1.5 2-.7 1.7.6-.3.1 0-.4-.5l-1-.6c-1-.8-1.7-1-1.2-2.2 1-2.6 3.2-5 4.5-7.4.8-1.4-1.4-2.6-2.2-1.2z" fill="#ffd15a"/><g fill="#1e2882"><path d="m18 33.9c4.3-7 8.6-14 13-20.8 1-1.4-1.2-2.6-2.1-1.3l-13.1 20.8c-.9 1.4 1.3 2.7 2.1 1.3z"/><path d="m30.9 13.3c3-2.4 6.1-4.7 9.3-7 1.3-.8 0-3-1.3-2a240 240 0 0 0 -9.8 7.3c-1.3 1 .5 2.7 1.8 1.7z"/><path d="m38.3 5.3c0 3.8-.8 7.6-1.1 11.3-.2 1.7 2.3 1.6 2.5 0 .3-3.7 1-7.5 1.1-11.3 0-1.6-2.5-1.6-2.5 0zm-28 24c1.5-.2 2.2 1.3 2.4 2.6a1.3 1.3 0 0 0 1.3 1.3 1.3 1.3 0 0 0 1.2-1.3c-.3-2.5-1.9-5.5-4.9-5.1a1.3 1.3 0 0 0 -1.2 1.3c0 .6.5 1.3 1.2 1.2z"/><path d="m13.4 33.3c4 2.6 8 5.1 12.1 7.5 1.4.8 2.7-1.3 1.3-2.1-4.1-2.5-8.2-5-12.1-7.6-1.4-.9-2.6 1.3-1.3 2.2z"/><path d="m26.6 40.9c1.5-.2 4.2-.6 4.9 1.3.5 1.5 3 .8 2.4-.7-1.2-3.5-4.9-3.5-8-3-1.5.2-.9 2.7.7 2.4zm-4.1-4.9 4.6-7.4c.8-1.4-1.4-2.6-2.2-1.2-1.5 2.5-3 5-4.6 7.3-.9 1.4 1.3 2.6 2.2 1.3zm-9.4 5.1 5.8 3.7c1.4.8 2.7-1.4 1.3-2.2a68 68 0 0 1 -5.8-3.7c-1.3-.9-2.6 1.3-1.3 2.2z"/></g></svg>