<svg fill="none" height="56" viewBox="0 0 56 56" width="56" xmlns="http://www.w3.org/2000/svg"><path d="m37.8 14.7-.1.1c.2-.2-.2.1 0 0 0 0-.3.1-.1 0h-.1-.2-.2l-.2-.2c.1.1 0 0 0 0v-.2c0-.3.2-.5.4-.6l.5-.1s.3.1.1 0c-.1 0 0 0 0 0v.1c0-.1 0 0 0 0a.7.7 0 0 1 0 .7c-.1.3-.4.3-.8.1-.7.3-1 0-1-.9a1.3 1.3 0 0 0 .9 1.6 1.3 1.3 0 0 0 1.5-1c.4-.7-.3-1.6-1-1.8a1.6 1.6 0 0 0 -2 1c-.4 1.3.9 2.7 2.2 2.7a1.7 1.7 0 0 0 1.6-1.3 2 2 0 0 0 -3.7-1.4 1.3 1.3 0 0 0 2.2 1.2z" fill="#ffb69b"/><path d="m38.9 26.3c0 .2 1-.7 1.2-.8a2.2 2.2 0 0 1 1.9 0c1.2.7 1.7 2.1 1.5 3.5l1.8-.8-3-1.1c-.7-.3-2-.4-2.8-.9l.6.8c-.4.4-.3.6 0 .4h.8l1.3.1c-.5 1.5 2 2.2 2.4.7 1-3.2-4.3-4.2-6.2-2.8a1.8 1.8 0 0 0 .1 3.2c.7.2 1.5.5 2.3.6l3.3 1.2c.6.3 1.6.1 1.8-.8.6-3-1-6.2-4.2-6.7-2.5-.4-6.2 1.9-5 4.7.7 1.5 2.8.2 2.2-1.3z" fill="#ffd15a"/><path d="m18.8 32.7a1.2 1.2 0 0 1 -.3-1s.1-.4 0-.4c.3 0 .3.3.5.4a.3.3 0 0 1 .2 0 .4.4 0 0 1 .2.6l-1 .1h.1l-.5-.2c0 1.5 2.6 1.5 2.5 0 0-1.2-1-2.6-2.3-2.1-1 .4-1.3 1.6-1 2.6a2.2 2.2 0 0 0 2.5 1.4 2.4 2.4 0 0 0 1.8-2.2c0-2.1-2.5-4-4.3-2.7-1.6 1-1.6 4-.2 5.3 1.2 1 3-.7 1.8-1.8zm-8.8-9.1h.3l-1.2-1a.8.8 0 0 1 .2-.7 1.3 1.3 0 0 0 -.2 1.5 1.3 1.3 0 0 0 1.4.6 1.6 1.6 0 0 0 1-2.2 1.5 1.5 0 0 0 -1.4-.9 1.6 1.6 0 0 0 -1.5 1.6 1.6 1.6 0 0 0 1.6 1.5 1.3 1.3 0 0 0 0-2.5c.7 0 1.3 1.1.6 1.7a1 1 0 0 1 -.8.2.5.5 0 0 1 -.4-.4.6.6 0 0 1 -.4-.5 1 1 0 0 1 .7-1l1.2 2.2a1.8 1.8 0 0 0 .4-1.7 1.3 1.3 0 0 0 -1.2-1h-.3a1.3 1.3 0 0 0 -1.3 1.3 1.3 1.3 0 0 0 1.3 1.3z" fill="#ffb69b"/><path d="m25.7 18.6c1 .7 2.4 1 3.6 1.4 1.3.5 2.3 1 3.6.5l.7-.2a1.2 1.2 0 0 0 .1-1.3c-.2-.5-.6-1-1-1.3l-3.4-3.1.1-.2a23.3 23.3 0 0 0 3.3-5.8l-.1-.6c-.3-.4-1-.4-1.4-.2a15 15 0 0 0 -5.3 2.7l-2.1-2.7c-.8-1-1.7-2-2.9-2.6a.7.7 0 0 0 -.4-.1c-.3 0-.4.5-.5.8-.1 2.2 0 4.4.3 6.5 0 0-2.8.4-3.9.9-1 .4-1.7.5-2.6 1l-.5.7a.4.4 0 0 0 .1.4c.7.8 1.8.8 2.8 1l3.6.6v.6a92 92 0 0 0 -.1 5.9c0 .6.1 1.5.7 1.7h.8c.7-.3 1-1.2 1.4-1.7 1-1.5 1.8-3 2.4-4.7z" fill="#ffd15a"/><path d="m25 19.7c2.2 1.1 7 3.5 9.3 1.6 3-2.4-2.8-6.4-4.2-7.6v1.8c1.5-1.2 4.8-6 3.5-8.1-1.7-2.7-6.8.9-8.4 2l1.5.2c-1.2-1.5-4.3-6.9-7-5.6-1 .5-1 1.7-1 2.7 0 2 0 4 .4 6l1.2-1.5c-1.4.2-2.7.4-4 .8-1.4.5-3.6.8-4.1 2.4-1.2 3.4 5.6 3.7 7.5 3.9l-1.2-1.3a60 60 0 0 0 -.1 6.5c0 1.2.4 2.5 1.7 3 3.1.8 5.3-5.3 6-7.4l-.8 1 .7-.3c1.5-.4.9-2.8-.7-2.4-2 .6-2.4 3.1-3.4 4.8-.2.3-.7 1.3-1 1.3v-2.5l.1-4a1.3 1.3 0 0 0 -1.2-1.2c-1.2-.2-2.4-.6-3.6-.7-1.2 0-2.3.5-.5-.2a23.4 23.4 0 0 1 5.2-1.3 1.3 1.3 0 0 0 .6-1.5c-.1-.8-1-5.4-.2-6l-1.2.2c2 .4 3.7 3.6 4.9 5.1a1.2 1.2 0 0 0 1.5.2c.9-.7 1.9-1.3 2.9-1.8l1.3-.5c.9-.4 1-.4.3.1-.5 1.6-1.4 3.1-2.7 4.3a1.3 1.3 0 0 0 0 1.8c.7.6 4.5 3.3 4 4.5l1-1c-2.2.8-5.1-.4-7-1.4-1.5-.8-2.7 1.4-1.3 2.1z" fill="#ffd15a"/><g fill="#1e2882"><path d="m20.3 10.9c-.2-1.2-1.6-6 .4-6.2.9 0 1.8 1.2 2.2 1.8a33 33 0 0 1 2.2 2.8c.8 1.3 3 0 2.1-1.3-1.5-2.3-4.2-6.9-7.6-5.6-3.6 1.4-2.2 6.4-1.7 9.2.2 1.5 2.6.9 2.4-.7z"/><path d="m26.9 9.9c.8-.6 1.7-1 2.6-1.5.4-.2 2.5-1.4 3-.8.4.5-.4 2.3-.6 2.8l-1.5 3c-.9 1.4 1.3 2.6 2.1 1.3 1.4-2.1 3.9-6.4 1.8-8.8-2-2.5-6.7.5-8.7 1.8-1.3 1 0 3 1.3 2.2zm-9.6 8.9c0 2.6-.7 7.9 3 8.6 3.4.7 5.4-3.8 6.5-6.3.6-1.5-1.5-2.7-2.2-1.3-.5 1.4-1.8 4.8-3.5 5-1.9.4-1.4-4.8-1.4-6 0-1.7-2.5-1.7-2.5 0z"/><path d="m25.4 21.5c1.4.5 2.8 1 4.3 1.3 1.5.4 2.2-2 .6-2.4l-4.2-1.4c-1.6-.5-2.2 2-.7 2.4zm-11.4-6.8c1.7-1 3.4-1.8 5.2-2.4 1.5-.5.8-2.9-.7-2.4-2 .7-4 1.5-5.7 2.6-1.4.9-.1 3 1.3 2.2z"/><path d="m25.1 21.1c1 2.8 2.2 5.5 3.4 8.2.6 1.4 2.8.2 2.2-1.3-1.1-2.5-2.3-5-3.2-7.5-.5-1.5-2.9-.9-2.4.6z"/><path d="m29.4 27.6c-4.8.8-8.3 2.2-11 6.3-1.9 3-2.3 8.2 1 10.2 1.4.9 2.7-1.3 1.3-2.1-1.3-.8-1.4-3.6-1-5a8.8 8.8 0 0 1 2-3.4c2.3-2.5 5.1-3 8.3-3.6 1.6-.3 1-2.7-.6-2.4zm19.6 6.3c-3-4.8-8.7-6.3-14-6.6-1.5-.1-1.5 2.4 0 2.5 4.4.2 9.4 1.3 11.8 5.3.9 1.4 3 .1 2.2-1.2z"/><path d="m24.4 34.2c-1.3 1-2 2.5-2.3 4.1-.2 2.1 1 3.5 2.8 4.2 1.5.6 2.2-1.8.7-2.4-2-.8-.6-3.2.6-4 1.2-1-.5-2.8-1.8-1.9z"/><path d="m24.5 41c-.8 1.3-1.3 2.8-.9 4.4.5 1.5 1.8 2.3 3.3 2.8 1.5.4 2.2-2 .6-2.5-.7-.2-1.4-.4-1.5-1.3 0-.8.2-1.5.7-2.2.8-1.4-1.3-2.6-2.2-1.2z"/><path d="m26.5 46.4a4.4 4.4 0 0 0 .5 5.7c1.8 1.7 4.3 1.8 6.6 1.5 2-.3 3.9-1.4 3.8-3.7 0-2.2-1.5-2.8-3.3-3.2-1.6-.3-2.3 2.1-.7 2.4.7.2 1.8 0 1.5 1.1-.3 1-2 1-2.8 1-1.9.1-5.2-1.1-3.5-3.6 1-1.3-1.2-2.5-2.1-1.2z"/><path d="m33 49.1a15 15 0 0 0 10.2-2.4c1.3-1 0-3-1.3-2.2a12.6 12.6 0 0 1 -8.1 2.2c-1.6-.2-2.3 2.2-.7 2.4z"/><path d="m34.8 48.5 2 5c.5 1.5 2.9.9 2.3-.7l-1.8-5c-.6-1.5-3-.8-2.5.7zm-7.8-6.5v-.3l.2-.1c-.1 0 0 0 0 0l.3-.2.3-.1.5-.2a1.3 1.3 0 0 0 -.6-2.4l-1.5.6c-.6.3-1.1.8-1.4 1.4a1.3 1.3 0 1 0 2.1 1.2zm1.4 5.9c.5-.7 1.2-1.3 2-1.6a1.3 1.3 0 0 0 .5-1.7 1.3 1.3 0 0 0 -1.7-.4 7 7 0 0 0 -3 2.4 1.3 1.3 0 0 0 .5 1.7 1.3 1.3 0 0 0 1.7-.4z"/></g></svg>